# MagicaVoxel @ Ephtracy

# group
o 

# material
mtllib LavaTest_1.mtl
usemtl palette

# normals
vn -1 0 0
vn 1 0 0
vn 0 0 1
vn 0 0 -1
vn 0 -1 0
vn 0 1 0

# texcoords
vt 0.919922 0.5
vt 0.951172 0.5
vt 0.982422 0.5

# verts
v -1 0.1 0.2
v -1 0.1 0.1
v -1 0.2 0.4
v -1 0.2 0.3
v -1 0.2 0.2
v -1 0.2 0.1
v -1 0.2 0
v -1 0.3 0.1
v -1 0.3 0
v -1 0.4 0.3
v -1 0.4 0.2
v -1 0.4 0.1
v -1 0.4 0
v -1 0.5 0.2
v -1 0.5 0.1
v -1 1 0.4
v -1 1 0
v -0.8 1.4 -0.2
v -0.8 1.4 -0.3
v -0.8 1.4 -0.4
v -0.8 1.4 -0.5
v -0.8 1.5 -0.1
v -0.8 1.5 -0.2
v -0.8 1.5 -0.3
v -0.8 1.5 -0.4
v -0.8 1.5 -0.5
v -0.8 1.6 -0.1
v -0.8 1.6 -0.2
v -0.7 1.5 -0.2
v -0.7 1.5 -0.3
v -0.7 1.5 -0.4
v -0.7 1.6 -0.1
v -0.7 1.6 -0.2
v -0.7 1.6 -0.3
v -0.7 1.6 -0.4
v -0.7 1.8 -0.1
v -0.7 1.8 -0.2
v -0.6 0.1 -0.8
v -0.6 0.1 -0.9
v -0.6 0.2 -0.8
v -0.6 0.2 -0.9
v -0.6 0.5 -0.8
v -0.6 0.5 -0.9
v -0.6 0.9 -0.3
v -0.6 0.9 -0.8
v -0.6 1 -0.3
v -0.6 1 -0.9
v -0.6 1.6 -0.2
v -0.6 1.6 -0.3
v -0.6 1.7 -0.2
v -0.6 1.7 -0.3
v -0.5 0.3 -0.8
v -0.5 0.3 -0.9
v -0.5 0.5 -0.8
v -0.5 0.5 -0.9
v -0.5 1.4 -0.6
v -0.5 1.4 -0.7
v -0.5 1.5 -0.6
v -0.5 1.5 -0.7
v -0.5 1.7 -0.2
v -0.5 1.7 -0.3
v -0.5 1.8 -0.1
v -0.5 1.8 -0.2
v -0.5 1.8 -0.3
v -0.5 1.9 -0.2
v -0.5 1.9 -0.3
v -0.5 2 -0.1
v -0.5 2 -0.2
v -0.5 2.1 -0.1
v -0.5 2.1 -0.2
v -0.4 1.5 -0.6
v -0.4 1.5 -0.7
v -0.4 1.6 -0.6
v -0.4 1.6 -0.7
v -0.4 1.9 -0.2
v -0.4 1.9 -0.3
v -0.4 2 -0.2
v -0.4 2.1 -0.1
v -0.4 2.1 -0.2
v -0.4 2.1 -0.3
v -0.4 2.2 -0.1
v -0.4 2.2 -0.2
v -0.3 1.6 -0.6
v -0.3 1.6 -0.7
v -0.3 1.8 -0.6
v -0.3 1.8 -0.7
v -0.2 1.5 -0.6
v -0.2 1.5 -0.8
v -0.2 1.6 -0.6
v -0.2 1.6 -0.7
v -0.2 1.6 -0.8
v -0.2 1.7 -0.4
v -0.2 1.7 -0.6
v -0.2 1.8 -0.6
v -0.2 1.9 -0.3
v -0.2 1.9 -0.4
v -0.2 1.9 -0.5
v -0.2 1.9 -0.6
v -0.2 2 -0.4
v -0.2 2 -0.5
v -0.2 2.1 0
v -0.2 2.1 -0.1
v -0.2 2.1 -0.2
v -0.2 2.1 -0.3
v -0.2 2.1 -0.4
v -0.2 2.2 -0.1
v -0.2 2.2 -0.2
v -0.2 2.2 -0.3
v -0.2 2.3 0
v -0.2 2.3 -0.1
v -0.2 2.3 -0.2
v -0.0999999 2.1 -0.3
v -0.0999999 2.1 -0.4
v -0.0999999 2.2 -0.2
v -0.0999999 2.2 -0.3
v -0.0999999 2.2 -0.4
v -0.0999999 2.3 -0.2
v -0.0999999 2.3 -0.3
v -0.9 0.1 0.2
v -0.9 0.1 0.1
v -0.9 0.2 0.4
v -0.9 0.2 0.3
v -0.9 0.2 0.2
v -0.9 0.2 0.1
v -0.9 0.2 0
v -0.9 0.3 0.1
v -0.9 0.3 0
v -0.9 0.4 0.3
v -0.9 0.4 0.2
v -0.9 0.4 0.1
v -0.9 0.4 0
v -0.9 0.5 0.2
v -0.9 0.5 0.1
v -0.9 0.9 0.4
v -0.9 0.9 0
v -0.7 1.4 -0.2
v -0.7 1.4 -0.3
v -0.7 1.4 -0.4
v -0.7 1.4 -0.5
v -0.7 1.5 -0.1
v -0.7 1.5 -0.2
v -0.7 1.5 -0.3
v -0.7 1.5 -0.4
v -0.7 1.5 -0.5
v -0.7 1.6 -0.1
v -0.7 1.6 -0.2
v -0.6 1.4 -0.3
v -0.6 1.4 -0.4
v -0.6 1.5 -0.2
v -0.6 1.5 -0.3
v -0.6 1.6 -0.2
v -0.6 1.6 -0.3
v -0.6 1.6 -0.4
v -0.5 0.1 -0.8
v -0.5 0.1 -0.9
v -0.5 0.2 -0.8
v -0.5 0.2 -0.9
v -0.5 0.9 0.4
v -0.5 0.9 0
v -0.5 1 0.4
v -0.5 1 0
v -0.5 1.6 -0.2
v -0.5 1.6 -0.3
v -0.5 1.7 -0.2
v -0.5 1.7 -0.3
v -0.4 0.3 -0.8
v -0.4 0.3 -0.9
v -0.4 0.9 -0.3
v -0.4 0.9 -0.8
v -0.4 1 -0.3
v -0.4 1 -0.9
v -0.4 1.6 -0.1
v -0.4 1.6 -0.2
v -0.4 1.7 -0.1
v -0.4 1.7 -0.2
v -0.4 1.7 -0.3
v -0.4 1.8 -0.2
v -0.4 1.8 -0.3
v -0.4 1.9 -0.2
v -0.4 1.9 -0.3
v -0.4 2 -0.1
v -0.4 2 -0.2
v -0.4 2.1 -0.1
v -0.4 2.1 -0.2
v -0.3 1.4 -0.6
v -0.3 1.4 -0.7
v -0.3 1.6 -0.6
v -0.3 1.6 -0.7
v -0.3 1.9 -0.2
v -0.3 1.9 -0.3
v -0.3 2.1 -0.2
v -0.3 2.1 -0.3
v -0.0999999 1.5 -0.6
v -0.0999999 1.5 -0.8
v -0.0999999 1.6 -0.6
v -0.0999999 1.6 -0.7
v -0.0999999 1.6 -0.8
v -0.0999999 1.7 -0.6
v -0.0999999 1.8 -0.5
v -0.0999999 1.8 -0.6
v -0.0999999 1.8 -0.7
v -0.0999999 1.9 -0.4
v -0.0999999 1.9 -0.5
v -0.0999999 1.9 -0.6
v -0.0999999 2 -0.4
v -0.0999999 2 -0.5
v -0.0999999 2.1 0
v -0.0999999 2.1 -0.1
v -0.0999999 2.3 0
v -0.0999999 2.3 -0.1
v 1.19209e-07 1.7 -0.4
v 1.19209e-07 1.7 -0.6
v 1.19209e-07 1.8 -0.5
v 1.19209e-07 1.8 -0.6
v 1.19209e-07 1.9 -0.3
v 1.19209e-07 1.9 -0.4
v 1.19209e-07 1.9 -0.5
v 1.19209e-07 2.1 -0.1
v 1.19209e-07 2.1 -0.3
v 1.19209e-07 2.2 -0.2
v 1.19209e-07 2.2 -0.3
v 1.19209e-07 2.2 -0.4
v 1.19209e-07 2.3 -0.1
v 1.19209e-07 2.3 -0.2
v 1.19209e-07 2.3 -0.3
v -1 0.2 0.4
v -1 1 0.4
v -0.9 0.2 0.4
v -0.9 0.9 0.4
v -0.5 0.9 0.4
v -0.5 1 0.4
v -1 0.1 0.2
v -1 0.2 0.2
v -0.9 0.1 0.2
v -0.9 0.2 0.2
v -1 0.2 0.1
v -1 0.3 0.1
v -1 0.4 0.1
v -1 0.5 0.1
v -0.9 0.2 0.1
v -0.9 0.3 0.1
v -0.9 0.4 0.1
v -0.9 0.5 0.1
v -0.2 2.1 0
v -0.2 2.3 0
v -0.0999999 2.1 0
v -0.0999999 2.3 0
v -0.8 1.5 -0.1
v -0.8 1.6 -0.1
v -0.7 1.5 -0.1
v -0.7 1.6 -0.1
v -0.7 1.8 -0.1
v -0.6 1.7 -0.1
v -0.6 1.8 -0.1
v -0.5 1.8 -0.1
v -0.5 2 -0.1
v -0.5 2.1 -0.1
v -0.4 1.6 -0.1
v -0.4 1.7 -0.1
v -0.4 2 -0.1
v -0.4 2.1 -0.1
v -0.4 2.2 -0.1
v -0.2 2.1 -0.1
v -0.2 2.2 -0.1
v -0.0999999 2.1 -0.1
v -0.0999999 2.3 -0.1
v 1.19209e-07 2.1 -0.1
v 1.19209e-07 2.3 -0.1
v -0.8 1.4 -0.2
v -0.8 1.5 -0.2
v -0.7 1.4 -0.2
v -0.7 1.5 -0.2
v -0.7 1.6 -0.2
v -0.6 1.5 -0.2
v -0.6 1.6 -0.2
v -0.4 1.9 -0.2
v -0.4 2 -0.2
v -0.4 2.1 -0.2
v -0.3 1.9 -0.2
v -0.3 2.1 -0.2
v -0.7 1.4 -0.3
v -0.7 1.5 -0.3
v -0.6 0.9 -0.3
v -0.6 1 -0.3
v -0.6 1.4 -0.3
v -0.6 1.5 -0.3
v -0.4 0.9 -0.3
v -0.4 1 -0.3
v -0.2 1.9 -0.3
v -0.2 2.1 -0.3
v -0.0999999 1.9 -0.3
v -0.0999999 2.1 -0.3
v 1.19209e-07 1.9 -0.3
v 1.19209e-07 2.1 -0.3
v -0.2 1.7 -0.4
v -0.2 1.9 -0.4
v -0.0999999 1.7 -0.4
v -0.0999999 1.9 -0.4
v 1.19209e-07 1.7 -0.4
v 1.19209e-07 1.9 -0.4
v -0.5 1.4 -0.6
v -0.5 1.5 -0.6
v -0.4 1.5 -0.6
v -0.4 1.6 -0.6
v -0.3 1.4 -0.6
v -0.3 1.6 -0.6
v -0.3 1.8 -0.6
v -0.2 1.5 -0.6
v -0.2 1.6 -0.6
v -0.2 1.7 -0.6
v -0.2 1.8 -0.6
v -0.0999999 1.5 -0.6
v -0.0999999 1.6 -0.6
v -0.0999999 1.7 -0.6
v -0.6 0.1 -0.8
v -0.6 0.2 -0.8
v -0.6 0.5 -0.8
v -0.6 0.9 -0.8
v -0.5 0.1 -0.8
v -0.5 0.2 -0.8
v -0.5 0.3 -0.8
v -0.5 0.5 -0.8
v -0.4 0.3 -0.8
v -0.4 0.9 -0.8
v -1 0.2 0.3
v -1 0.4 0.3
v -0.9 0.2 0.3
v -0.9 0.4 0.3
v -1 0.4 0.2
v -1 0.5 0.2
v -0.9 0.4 0.2
v -0.9 0.5 0.2
v -1 0.1 0.1
v -1 0.2 0.1
v -0.9 0.1 0.1
v -0.9 0.2 0.1
v -1 0.2 0
v -1 0.3 0
v -1 0.4 0
v -1 1 0
v -0.9 0.2 0
v -0.9 0.3 0
v -0.9 0.4 0
v -0.9 0.9 0
v -0.5 0.9 0
v -0.5 1 0
v -0.8 1.5 -0.2
v -0.8 1.6 -0.2
v -0.7 1.5 -0.2
v -0.7 1.6 -0.2
v -0.7 1.8 -0.2
v -0.6 1.6 -0.2
v -0.6 1.7 -0.2
v -0.6 1.8 -0.2
v -0.5 1.6 -0.2
v -0.5 1.7 -0.2
v -0.5 1.8 -0.2
v -0.5 1.9 -0.2
v -0.5 2 -0.2
v -0.5 2.1 -0.2
v -0.4 1.6 -0.2
v -0.4 1.7 -0.2
v -0.4 1.9 -0.2
v -0.4 2 -0.2
v -0.4 2.1 -0.2
v -0.4 2.2 -0.2
v -0.3 2.1 -0.2
v -0.2 2.1 -0.2
v -0.2 2.2 -0.2
v -0.2 2.3 -0.2
v -0.0999999 2.2 -0.2
v -0.0999999 2.3 -0.2
v -0.6 1.6 -0.3
v -0.6 1.7 -0.3
v -0.5 1.6 -0.3
v -0.5 1.7 -0.3
v -0.5 1.8 -0.3
v -0.5 1.9 -0.3
v -0.4 1.7 -0.3
v -0.4 1.8 -0.3
v -0.4 1.9 -0.3
v -0.4 2.1 -0.3
v -0.3 1.9 -0.3
v -0.3 2.1 -0.3
v -0.2 2.1 -0.3
v -0.2 2.2 -0.3
v -0.0999999 2.1 -0.3
v -0.0999999 2.2 -0.3
v -0.0999999 2.3 -0.3
v 1.19209e-07 2.2 -0.3
v 1.19209e-07 2.3 -0.3
v -0.7 1.4 -0.4
v -0.7 1.5 -0.4
v -0.7 1.6 -0.4
v -0.6 1.4 -0.4
v -0.6 1.6 -0.4
v -0.2 2 -0.4
v -0.2 2.1 -0.4
v -0.0999999 1.9 -0.4
v -0.0999999 2 -0.4
v -0.0999999 2.1 -0.4
v -0.0999999 2.2 -0.4
v 1.19209e-07 1.9 -0.4
v 1.19209e-07 2.2 -0.4
v -0.8 1.4 -0.5
v -0.8 1.5 -0.5
v -0.7 1.4 -0.5
v -0.7 1.5 -0.5
v -0.2 1.9 -0.5
v -0.2 2 -0.5
v -0.0999999 1.8 -0.5
v -0.0999999 1.9 -0.5
v -0.0999999 2 -0.5
v 1.19209e-07 1.8 -0.5
v 1.19209e-07 1.9 -0.5
v -0.2 1.8 -0.6
v -0.2 1.9 -0.6
v -0.0999999 1.7 -0.6
v -0.0999999 1.8 -0.6
v -0.0999999 1.9 -0.6
v 1.19209e-07 1.7 -0.6
v 1.19209e-07 1.8 -0.6
v -0.5 1.4 -0.7
v -0.5 1.5 -0.7
v -0.4 1.5 -0.7
v -0.4 1.6 -0.7
v -0.3 1.4 -0.7
v -0.3 1.6 -0.7
v -0.3 1.8 -0.7
v -0.2 1.6 -0.7
v -0.2 1.8 -0.7
v -0.0999999 1.6 -0.7
v -0.0999999 1.8 -0.7
v -0.2 1.5 -0.8
v -0.2 1.6 -0.8
v -0.0999999 1.5 -0.8
v -0.0999999 1.6 -0.8
v -0.6 0.1 -0.9
v -0.6 0.2 -0.9
v -0.6 0.5 -0.9
v -0.6 1 -0.9
v -0.5 0.1 -0.9
v -0.5 0.2 -0.9
v -0.5 0.3 -0.9
v -0.5 0.5 -0.9
v -0.4 0.3 -0.9
v -0.4 1 -0.9
v -1 0.1 0.2
v -0.9 0.1 0.2
v -1 0.1 0.1
v -0.9 0.1 0.1
v -0.6 0.1 -0.8
v -0.5 0.1 -0.8
v -0.6 0.1 -0.9
v -0.5 0.1 -0.9
v -1 0.2 0.4
v -0.9 0.2 0.4
v -1 0.2 0.3
v -0.9 0.2 0.3
v -1 0.2 0.1
v -0.9 0.2 0.1
v -1 0.2 0
v -0.9 0.2 0
v -0.5 0.3 -0.8
v -0.4 0.3 -0.8
v -0.5 0.3 -0.9
v -0.4 0.3 -0.9
v -1 0.4 0.3
v -0.9 0.4 0.3
v -1 0.4 0.2
v -0.9 0.4 0.2
v -1 0.4 0.1
v -0.9 0.4 0.1
v -1 0.4 0
v -0.9 0.4 0
v -1 0.5 0.2
v -0.9 0.5 0.2
v -1 0.5 0.1
v -0.9 0.5 0.1
v -0.6 0.5 -0.8
v -0.5 0.5 -0.8
v -0.6 0.5 -0.9
v -0.5 0.5 -0.9
v -0.9 0.9 0.4
v -0.5 0.9 0.4
v -0.9 0.9 0
v -0.5 0.9 0
v -0.6 0.9 -0.3
v -0.4 0.9 -0.3
v -0.6 0.9 -0.8
v -0.4 0.9 -0.8
v -0.8 1.4 -0.2
v -0.7 1.4 -0.2
v -0.8 1.4 -0.3
v -0.7 1.4 -0.3
v -0.6 1.4 -0.3
v -0.8 1.4 -0.4
v -0.7 1.4 -0.4
v -0.6 1.4 -0.4
v -0.8 1.4 -0.5
v -0.7 1.4 -0.5
v -0.5 1.4 -0.6
v -0.3 1.4 -0.6
v -0.5 1.4 -0.7
v -0.3 1.4 -0.7
v -0.8 1.5 -0.1
v -0.7 1.5 -0.1
v -0.8 1.5 -0.2
v -0.7 1.5 -0.2
v -0.6 1.5 -0.2
v -0.7 1.5 -0.3
v -0.6 1.5 -0.3
v -0.2 1.5 -0.6
v -0.0999999 1.5 -0.6
v -0.2 1.5 -0.8
v -0.0999999 1.5 -0.8
v -0.7 1.6 -0.1
v -0.4 1.6 -0.1
v -0.7 1.6 -0.2
v -0.6 1.6 -0.2
v -0.5 1.6 -0.2
v -0.4 1.6 -0.2
v -0.6 1.6 -0.3
v -0.5 1.6 -0.3
v -0.3 1.6 -0.6
v -0.2 1.6 -0.6
v -0.3 1.6 -0.7
v -0.2 1.6 -0.7
v -0.5 1.7 -0.2
v -0.4 1.7 -0.2
v -0.5 1.7 -0.3
v -0.4 1.7 -0.3
v -0.2 1.7 -0.4
v -0.0999999 1.7 -0.4
v 1.19209e-07 1.7 -0.4
v -0.2 1.7 -0.6
v -0.0999999 1.7 -0.6
v 1.19209e-07 1.7 -0.6
v -0.4 1.9 -0.2
v -0.3 1.9 -0.2
v -0.4 1.9 -0.3
v -0.3 1.9 -0.3
v -0.2 1.9 -0.3
v -0.0999999 1.9 -0.3
v 1.19209e-07 1.9 -0.3
v -0.2 1.9 -0.4
v -0.0999999 1.9 -0.4
v 1.19209e-07 1.9 -0.4
v -0.2 2.1 0
v -0.0999999 2.1 0
v -0.4 2.1 -0.1
v -0.2 2.1 -0.1
v -0.0999999 2.1 -0.1
v 1.19209e-07 2.1 -0.1
v -0.4 2.1 -0.2
v -0.3 2.1 -0.2
v -0.2 2.1 -0.2
v -0.0999999 2.1 -0.2
v -0.2 2.1 -0.3
v -0.0999999 2.1 -0.3
v 1.19209e-07 2.1 -0.3
v -1 0.2 0.2
v -0.9 0.2 0.2
v -1 0.2 0.1
v -0.9 0.2 0.1
v -0.6 0.2 -0.8
v -0.5 0.2 -0.8
v -0.6 0.2 -0.9
v -0.5 0.2 -0.9
v -1 0.3 0.1
v -0.9 0.3 0.1
v -1 0.3 0
v -0.9 0.3 0
v -1 1 0.4
v -0.5 1 0.4
v -1 1 0
v -0.5 1 0
v -0.6 1 -0.3
v -0.4 1 -0.3
v -0.6 1 -0.9
v -0.4 1 -0.9
v -0.8 1.5 -0.2
v -0.7 1.5 -0.2
v -0.8 1.5 -0.3
v -0.7 1.5 -0.3
v -0.8 1.5 -0.4
v -0.7 1.5 -0.4
v -0.8 1.5 -0.5
v -0.7 1.5 -0.5
v -0.5 1.5 -0.6
v -0.4 1.5 -0.6
v -0.5 1.5 -0.7
v -0.4 1.5 -0.7
v -0.8 1.6 -0.1
v -0.7 1.6 -0.1
v -0.8 1.6 -0.2
v -0.7 1.6 -0.2
v -0.6 1.6 -0.2
v -0.7 1.6 -0.3
v -0.6 1.6 -0.3
v -0.7 1.6 -0.4
v -0.6 1.6 -0.4
v -0.4 1.6 -0.6
v -0.3 1.6 -0.6
v -0.4 1.6 -0.7
v -0.3 1.6 -0.7
v -0.2 1.6 -0.7
v -0.0999999 1.6 -0.7
v -0.2 1.6 -0.8
v -0.0999999 1.6 -0.8
v -0.6 1.7 -0.2
v -0.5 1.7 -0.2
v -0.6 1.7 -0.3
v -0.5 1.7 -0.3
v -0.7 1.8 -0.1
v -0.6 1.8 -0.1
v -0.5 1.8 -0.1
v -0.7 1.8 -0.2
v -0.6 1.8 -0.2
v -0.5 1.8 -0.2
v -0.0999999 1.8 -0.5
v 1.19209e-07 1.8 -0.5
v -0.3 1.8 -0.6
v -0.2 1.8 -0.6
v -0.0999999 1.8 -0.6
v 1.19209e-07 1.8 -0.6
v -0.3 1.8 -0.7
v -0.2 1.8 -0.7
v -0.0999999 1.8 -0.7
v -0.5 1.9 -0.2
v -0.4 1.9 -0.2
v -0.5 1.9 -0.3
v -0.4 1.9 -0.3
v -0.0999999 1.9 -0.4
v 1.19209e-07 1.9 -0.4
v -0.2 1.9 -0.5
v -0.0999999 1.9 -0.5
v 1.19209e-07 1.9 -0.5
v -0.2 1.9 -0.6
v -0.0999999 1.9 -0.6
v -0.2 2 -0.4
v -0.0999999 2 -0.4
v -0.2 2 -0.5
v -0.0999999 2 -0.5
v -0.5 2.1 -0.1
v -0.4 2.1 -0.1
v -0.5 2.1 -0.2
v -0.4 2.1 -0.2
v -0.3 2.1 -0.2
v -0.4 2.1 -0.3
v -0.3 2.1 -0.3
v -0.2 2.1 -0.3
v -0.0999999 2.1 -0.3
v -0.2 2.1 -0.4
v -0.0999999 2.1 -0.4
v -0.4 2.2 -0.1
v -0.2 2.2 -0.1
v -0.4 2.2 -0.2
v -0.2 2.2 -0.2
v -0.0999999 2.2 -0.2
v -0.2 2.2 -0.3
v -0.0999999 2.2 -0.3
v 1.19209e-07 2.2 -0.3
v -0.0999999 2.2 -0.4
v 1.19209e-07 2.2 -0.4
v -0.2 2.3 0
v -0.0999999 2.3 0
v -0.2 2.3 -0.1
v -0.0999999 2.3 -0.1
v 1.19209e-07 2.3 -0.1
v -0.2 2.3 -0.2
v -0.0999999 2.3 -0.2
v 1.19209e-07 2.3 -0.2
v -0.0999999 2.3 -0.3
v 1.19209e-07 2.3 -0.3

# faces
f 5/1/1 2/1/1 1/1/1
f 6/1/1 2/1/1 5/1/1
f 8/1/1 7/1/1 6/1/1
f 9/1/1 7/1/1 8/1/1
f 10/1/1 4/1/1 3/1/1
f 14/1/1 11/1/1 10/1/1
f 15/1/1 13/1/1 12/1/1
f 16/1/1 10/1/1 3/1/1
f 16/1/1 15/1/1 14/1/1
f 16/1/1 14/1/1 10/1/1
f 17/1/1 13/1/1 15/1/1
f 17/1/1 15/1/1 16/1/1
f 23/1/1 19/1/1 18/1/1
f 24/2/1 20/2/1 19/2/1
f 24/1/1 19/1/1 23/1/1
f 25/1/1 21/1/1 20/1/1
f 25/2/1 20/2/1 24/2/1
f 26/1/1 21/1/1 25/1/1
f 27/1/1 23/1/1 22/1/1
f 28/1/1 23/1/1 27/1/1
f 33/3/1 30/3/1 29/3/1
f 34/2/1 31/2/1 30/2/1
f 34/3/1 30/3/1 33/3/1
f 35/2/1 31/2/1 34/2/1
f 36/1/1 33/1/1 32/1/1
f 37/1/1 33/1/1 36/1/1
f 40/1/1 39/1/1 38/1/1
f 41/1/1 39/1/1 40/1/1
f 45/1/1 43/1/1 42/1/1
f 46/1/1 45/1/1 44/1/1
f 47/1/1 43/1/1 45/1/1
f 47/1/1 45/1/1 46/1/1
f 50/1/1 49/1/1 48/1/1
f 51/1/1 49/1/1 50/1/1
f 54/1/1 53/1/1 52/1/1
f 55/1/1 53/1/1 54/1/1
f 58/1/1 57/1/1 56/1/1
f 59/1/1 57/1/1 58/1/1
f 63/1/1 61/1/1 60/1/1
f 64/1/1 61/1/1 63/1/1
f 65/3/1 63/3/1 62/3/1
f 65/2/1 64/2/1 63/2/1
f 66/2/1 64/2/1 65/2/1
f 67/3/1 65/3/1 62/3/1
f 68/3/1 65/3/1 67/3/1
f 69/1/1 68/1/1 67/1/1
f 70/1/1 68/1/1 69/1/1
f 73/1/1 72/1/1 71/1/1
f 74/1/1 72/1/1 73/1/1
f 77/2/1 76/2/1 75/2/1
f 79/2/1 76/2/1 77/2/1
f 80/2/1 76/2/1 79/2/1
f 81/1/1 79/1/1 78/1/1
f 82/1/1 79/1/1 81/1/1
f 85/1/1 84/1/1 83/1/1
f 86/1/1 84/1/1 85/1/1
f 89/1/1 88/1/1 87/1/1
f 90/1/1 88/1/1 89/1/1
f 91/1/1 88/1/1 90/1/1
f 94/1/1 93/1/1 92/1/1
f 96/1/1 94/1/1 92/1/1
f 97/1/1 94/1/1 96/1/1
f 98/1/1 94/1/1 97/1/1
f 99/1/1 96/1/1 95/1/1
f 99/1/1 97/1/1 96/1/1
f 100/1/1 97/1/1 99/1/1
f 104/1/1 99/1/1 95/1/1
f 105/1/1 99/1/1 104/1/1
f 106/1/1 102/1/1 101/1/1
f 107/2/1 104/2/1 103/2/1
f 108/2/1 104/2/1 107/2/1
f 109/1/1 106/1/1 101/1/1
f 110/2/1 107/2/1 106/2/1
f 110/1/1 106/1/1 109/1/1
f 111/2/1 107/2/1 110/2/1
f 115/3/1 113/3/1 112/3/1
f 116/3/1 113/3/1 115/3/1
f 117/2/1 115/2/1 114/2/1
f 118/2/1 115/2/1 117/2/1
f 119/1/2 120/1/2 123/1/2
f 123/1/2 120/1/2 124/1/2
f 124/1/2 125/1/2 126/1/2
f 126/1/2 125/1/2 127/1/2
f 121/1/2 122/1/2 128/1/2
f 128/1/2 129/1/2 132/1/2
f 130/1/2 131/1/2 133/1/2
f 121/1/2 128/1/2 134/1/2
f 132/1/2 133/1/2 134/1/2
f 128/1/2 132/1/2 134/1/2
f 133/1/2 131/1/2 135/1/2
f 134/1/2 133/1/2 135/1/2
f 136/1/2 137/1/2 141/1/2
f 141/1/2 137/1/2 142/1/2
f 138/1/2 139/1/2 143/1/2
f 143/1/2 139/1/2 144/1/2
f 140/1/2 141/1/2 145/1/2
f 145/1/2 141/1/2 146/1/2
f 147/2/2 148/2/2 150/2/2
f 149/3/2 150/3/2 151/3/2
f 150/2/2 148/2/2 152/2/2
f 151/3/2 150/3/2 152/3/2
f 152/2/2 148/2/2 153/2/2
f 154/1/2 155/1/2 156/1/2
f 156/1/2 155/1/2 157/1/2
f 158/1/2 159/1/2 160/1/2
f 160/1/2 159/1/2 161/1/2
f 162/1/2 163/1/2 164/1/2
f 164/1/2 163/1/2 165/1/2
f 166/1/2 167/1/2 169/1/2
f 168/1/2 169/1/2 170/1/2
f 169/1/2 167/1/2 171/1/2
f 170/1/2 169/1/2 171/1/2
f 172/1/2 173/1/2 174/1/2
f 174/1/2 173/1/2 175/1/2
f 174/3/2 175/3/2 177/3/2
f 175/1/2 176/1/2 177/1/2
f 177/1/2 176/1/2 178/1/2
f 174/3/2 177/3/2 179/3/2
f 177/2/2 178/2/2 179/2/2
f 179/2/2 178/2/2 180/2/2
f 174/3/2 179/3/2 181/3/2
f 181/3/2 179/3/2 182/3/2
f 181/1/2 182/1/2 183/1/2
f 183/1/2 182/1/2 184/1/2
f 185/1/2 186/1/2 187/1/2
f 187/1/2 186/1/2 188/1/2
f 189/2/2 190/2/2 191/2/2
f 191/2/2 190/2/2 192/2/2
f 193/1/2 194/1/2 195/1/2
f 195/1/2 194/1/2 196/1/2
f 196/1/2 194/1/2 197/1/2
f 195/2/2 196/2/2 198/2/2
f 198/2/2 196/2/2 200/2/2
f 200/2/2 196/2/2 201/2/2
f 199/1/2 200/1/2 203/1/2
f 203/1/2 200/1/2 204/1/2
f 202/1/2 203/1/2 205/1/2
f 205/1/2 203/1/2 206/1/2
f 207/1/2 208/1/2 209/1/2
f 209/1/2 208/1/2 210/1/2
f 211/2/2 212/2/2 213/2/2
f 213/2/2 212/2/2 214/2/2
f 211/2/2 213/2/2 216/2/2
f 216/2/2 213/2/2 217/2/2
f 215/3/2 216/3/2 219/3/2
f 218/1/2 219/1/2 220/1/2
f 219/3/2 216/3/2 221/3/2
f 220/1/2 219/1/2 221/1/2
f 221/3/2 216/3/2 222/3/2
f 218/1/2 220/1/2 223/1/2
f 220/2/2 221/2/2 224/2/2
f 223/1/2 220/1/2 224/1/2
f 224/2/2 221/2/2 225/2/2
f 228/1/3 227/1/3 226/1/3
f 229/1/3 227/1/3 228/1/3
f 230/1/3 227/1/3 229/1/3
f 231/1/3 227/1/3 230/1/3
f 234/1/3 233/1/3 232/1/3
f 235/1/3 233/1/3 234/1/3
f 240/1/3 237/1/3 236/1/3
f 241/1/3 237/1/3 240/1/3
f 242/1/3 239/1/3 238/1/3
f 243/1/3 239/1/3 242/1/3
f 246/1/3 245/1/3 244/1/3
f 247/1/3 245/1/3 246/1/3
f 250/1/3 249/1/3 248/1/3
f 251/1/3 249/1/3 250/1/3
f 253/1/3 252/1/3 251/1/3
f 254/1/3 252/1/3 253/1/3
f 255/3/3 254/3/3 253/3/3
f 258/1/3 253/1/3 251/1/3
f 259/3/3 255/3/3 253/3/3
f 259/1/3 253/1/3 258/1/3
f 259/3/3 256/3/3 255/3/3
f 260/1/3 257/1/3 256/1/3
f 260/3/3 256/3/3 259/3/3
f 261/1/3 257/1/3 260/1/3
f 263/1/3 262/1/3 261/1/3
f 264/1/3 262/1/3 263/1/3
f 267/1/3 266/1/3 265/1/3
f 268/1/3 266/1/3 267/1/3
f 271/1/3 270/1/3 269/1/3
f 272/1/3 270/1/3 271/1/3
f 274/3/3 273/3/3 272/3/3
f 275/3/3 273/3/3 274/3/3
f 279/2/3 277/2/3 276/2/3
f 279/2/3 278/2/3 277/2/3
f 280/2/3 278/2/3 279/2/3
f 285/2/3 282/2/3 281/2/3
f 286/2/3 282/2/3 285/2/3
f 287/1/3 284/1/3 283/1/3
f 288/1/3 284/1/3 287/1/3
f 291/1/3 290/1/3 289/1/3
f 292/1/3 290/1/3 291/1/3
f 293/3/3 292/3/3 291/3/3
f 294/3/3 292/3/3 293/3/3
f 297/1/3 296/1/3 295/1/3
f 298/1/3 296/1/3 297/1/3
f 299/2/3 298/2/3 297/2/3
f 300/2/3 298/2/3 299/2/3
f 303/1/3 302/1/3 301/1/3
f 305/1/3 303/1/3 301/1/3
f 305/1/3 304/1/3 303/1/3
f 306/1/3 304/1/3 305/1/3
f 309/1/3 307/1/3 306/1/3
f 310/1/3 307/1/3 309/1/3
f 311/1/3 307/1/3 310/1/3
f 312/1/3 309/1/3 308/1/3
f 313/2/3 310/2/3 309/2/3
f 313/1/3 309/1/3 312/1/3
f 314/2/3 310/2/3 313/2/3
f 319/1/3 316/1/3 315/1/3
f 320/1/3 316/1/3 319/1/3
f 322/1/3 318/1/3 317/1/3
f 323/1/3 322/1/3 321/1/3
f 324/1/3 318/1/3 322/1/3
f 324/1/3 322/1/3 323/1/3
f 325/1/4 326/1/4 327/1/4
f 327/1/4 326/1/4 328/1/4
f 329/1/4 330/1/4 331/1/4
f 331/1/4 330/1/4 332/1/4
f 333/1/4 334/1/4 335/1/4
f 335/1/4 334/1/4 336/1/4
f 337/1/4 338/1/4 341/1/4
f 341/1/4 338/1/4 342/1/4
f 339/1/4 340/1/4 343/1/4
f 343/1/4 340/1/4 344/1/4
f 344/1/4 340/1/4 345/1/4
f 345/1/4 340/1/4 346/1/4
f 347/1/4 348/1/4 349/1/4
f 349/1/4 348/1/4 350/1/4
f 350/1/4 351/1/4 352/1/4
f 352/1/4 351/1/4 353/1/4
f 353/1/4 351/1/4 354/1/4
f 353/3/4 354/3/4 356/3/4
f 356/3/4 354/3/4 357/3/4
f 355/1/4 356/1/4 361/1/4
f 361/1/4 356/1/4 362/1/4
f 358/3/4 359/3/4 363/3/4
f 359/1/4 360/1/4 364/1/4
f 363/3/4 359/3/4 364/3/4
f 364/1/4 360/1/4 365/1/4
f 365/1/4 366/1/4 367/1/4
f 367/1/4 366/1/4 368/1/4
f 368/1/4 366/1/4 369/1/4
f 369/2/4 370/2/4 371/2/4
f 371/2/4 370/2/4 372/2/4
f 373/1/4 374/1/4 375/1/4
f 375/1/4 374/1/4 376/1/4
f 376/1/4 377/1/4 379/1/4
f 377/2/4 378/2/4 380/2/4
f 379/1/4 377/1/4 380/1/4
f 380/2/4 378/2/4 381/2/4
f 381/2/4 382/2/4 383/2/4
f 383/2/4 382/2/4 384/2/4
f 385/2/4 386/2/4 387/2/4
f 387/2/4 386/2/4 388/2/4
f 388/2/4 389/2/4 390/2/4
f 390/2/4 389/2/4 391/2/4
f 392/2/4 393/2/4 395/2/4
f 393/2/4 394/2/4 395/2/4
f 395/2/4 394/2/4 396/2/4
f 397/1/4 398/1/4 400/1/4
f 400/1/4 398/1/4 401/1/4
f 399/3/4 400/3/4 403/3/4
f 401/3/4 402/3/4 403/3/4
f 400/3/4 401/3/4 403/3/4
f 403/3/4 402/3/4 404/3/4
f 405/1/4 406/1/4 407/1/4
f 407/1/4 406/1/4 408/1/4
f 409/1/4 410/1/4 412/1/4
f 412/1/4 410/1/4 413/1/4
f 411/2/4 412/2/4 414/2/4
f 414/2/4 412/2/4 415/2/4
f 416/1/4 417/1/4 419/1/4
f 419/1/4 417/1/4 420/1/4
f 418/2/4 419/2/4 421/2/4
f 421/2/4 419/2/4 422/2/4
f 423/1/4 424/1/4 425/1/4
f 423/1/4 425/1/4 427/1/4
f 425/1/4 426/1/4 427/1/4
f 427/1/4 426/1/4 428/1/4
f 428/1/4 429/1/4 430/1/4
f 430/1/4 429/1/4 431/1/4
f 430/2/4 431/2/4 432/2/4
f 432/2/4 431/2/4 433/2/4
f 434/1/4 435/1/4 436/1/4
f 436/1/4 435/1/4 437/1/4
f 438/1/4 439/1/4 442/1/4
f 442/1/4 439/1/4 443/1/4
f 440/1/4 441/1/4 445/1/4
f 444/1/4 445/1/4 446/1/4
f 445/1/4 441/1/4 447/1/4
f 446/1/4 445/1/4 447/1/4
f 450/1/5 449/1/5 448/1/5
f 451/1/5 449/1/5 450/1/5
f 454/1/5 453/1/5 452/1/5
f 455/1/5 453/1/5 454/1/5
f 458/1/5 457/1/5 456/1/5
f 459/1/5 457/1/5 458/1/5
f 462/1/5 461/1/5 460/1/5
f 463/1/5 461/1/5 462/1/5
f 466/1/5 465/1/5 464/1/5
f 467/1/5 465/1/5 466/1/5
f 470/1/5 469/1/5 468/1/5
f 471/1/5 469/1/5 470/1/5
f 474/1/5 473/1/5 472/1/5
f 475/1/5 473/1/5 474/1/5
f 478/1/5 477/1/5 476/1/5
f 479/1/5 477/1/5 478/1/5
f 482/1/5 481/1/5 480/1/5
f 483/1/5 481/1/5 482/1/5
f 486/1/5 485/1/5 484/1/5
f 487/1/5 485/1/5 486/1/5
f 490/1/5 489/1/5 488/1/5
f 491/1/5 489/1/5 490/1/5
f 494/1/5 493/1/5 492/1/5
f 495/1/5 493/1/5 494/1/5
f 497/2/5 495/2/5 494/2/5
f 497/2/5 496/2/5 495/2/5
f 498/2/5 496/2/5 497/2/5
f 499/2/5 496/2/5 498/2/5
f 500/1/5 498/1/5 497/1/5
f 501/1/5 498/1/5 500/1/5
f 504/1/5 503/1/5 502/1/5
f 505/1/5 503/1/5 504/1/5
f 508/1/5 507/1/5 506/1/5
f 509/1/5 507/1/5 508/1/5
f 511/3/5 510/3/5 509/3/5
f 512/3/5 510/3/5 511/3/5
f 515/1/5 514/1/5 513/1/5
f 516/1/5 514/1/5 515/1/5
f 519/1/5 518/1/5 517/1/5
f 520/1/5 518/1/5 519/1/5
f 521/1/5 518/1/5 520/1/5
f 522/1/5 518/1/5 521/1/5
f 523/1/5 521/1/5 520/1/5
f 524/1/5 521/1/5 523/1/5
f 527/1/5 526/1/5 525/1/5
f 528/1/5 526/1/5 527/1/5
f 531/1/5 530/1/5 529/1/5
f 532/1/5 530/1/5 531/1/5
f 536/1/5 534/1/5 533/1/5
f 537/2/5 535/2/5 534/2/5
f 537/1/5 534/1/5 536/1/5
f 538/2/5 535/2/5 537/2/5
f 541/2/5 540/2/5 539/2/5
f 542/2/5 540/2/5 541/2/5
f 546/1/5 544/1/5 543/1/5
f 547/3/5 545/3/5 544/3/5
f 547/1/5 544/1/5 546/1/5
f 548/3/5 545/3/5 547/3/5
f 552/1/5 550/1/5 549/1/5
f 553/1/5 550/1/5 552/1/5
f 555/1/5 552/1/5 551/1/5
f 555/1/5 554/1/5 553/1/5
f 555/1/5 553/1/5 552/1/5
f 556/1/5 554/1/5 555/1/5
f 557/1/5 554/1/5 556/1/5
f 558/1/5 554/1/5 557/1/5
f 559/2/5 558/2/5 557/2/5
f 560/1/5 554/1/5 558/1/5
f 560/2/5 558/2/5 559/2/5
f 561/1/5 554/1/5 560/1/5
f 562/1/6 563/1/6 564/1/6
f 564/1/6 563/1/6 565/1/6
f 566/1/6 567/1/6 568/1/6
f 568/1/6 567/1/6 569/1/6
f 570/1/6 571/1/6 572/1/6
f 572/1/6 571/1/6 573/1/6
f 574/1/6 575/1/6 576/1/6
f 576/1/6 575/1/6 577/1/6
f 578/1/6 579/1/6 580/1/6
f 580/1/6 579/1/6 581/1/6
f 582/1/6 583/1/6 584/1/6
f 584/1/6 583/1/6 585/1/6
f 584/2/6 585/2/6 586/2/6
f 586/2/6 585/2/6 587/2/6
f 586/1/6 587/1/6 588/1/6
f 588/1/6 587/1/6 589/1/6
f 590/1/6 591/1/6 592/1/6
f 592/1/6 591/1/6 593/1/6
f 594/1/6 595/1/6 596/1/6
f 596/1/6 595/1/6 597/1/6
f 597/3/6 598/3/6 599/3/6
f 599/3/6 598/3/6 600/3/6
f 599/2/6 600/2/6 601/2/6
f 601/2/6 600/2/6 602/2/6
f 603/1/6 604/1/6 605/1/6
f 605/1/6 604/1/6 606/1/6
f 607/1/6 608/1/6 609/1/6
f 609/1/6 608/1/6 610/1/6
f 611/1/6 612/1/6 613/1/6
f 613/1/6 612/1/6 614/1/6
f 615/1/6 616/1/6 618/1/6
f 616/3/6 617/3/6 619/3/6
f 618/1/6 616/1/6 619/1/6
f 619/3/6 617/3/6 620/3/6
f 621/2/6 622/2/6 625/2/6
f 625/2/6 622/2/6 626/2/6
f 623/1/6 624/1/6 627/1/6
f 624/2/6 625/2/6 628/2/6
f 627/1/6 624/1/6 628/1/6
f 628/2/6 625/2/6 629/2/6
f 630/2/6 631/2/6 632/2/6
f 632/2/6 631/2/6 633/2/6
f 634/2/6 635/2/6 637/2/6
f 637/2/6 635/2/6 638/2/6
f 636/1/6 637/1/6 639/1/6
f 639/1/6 637/1/6 640/1/6
f 641/1/6 642/1/6 643/1/6
f 643/1/6 642/1/6 644/1/6
f 645/1/6 646/1/6 647/1/6
f 647/1/6 646/1/6 648/1/6
f 648/2/6 649/2/6 650/2/6
f 650/2/6 649/2/6 651/2/6
f 652/1/6 653/1/6 654/1/6
f 654/1/6 653/1/6 655/1/6
f 656/1/6 657/1/6 658/1/6
f 658/1/6 657/1/6 659/1/6
f 659/2/6 660/2/6 661/2/6
f 661/2/6 660/2/6 662/2/6
f 662/3/6 663/3/6 664/3/6
f 664/3/6 663/3/6 665/3/6
f 666/1/6 667/1/6 668/1/6
f 668/1/6 667/1/6 669/1/6
f 668/2/6 669/2/6 671/2/6
f 669/1/6 670/1/6 672/1/6
f 671/2/6 669/2/6 672/2/6
f 672/1/6 670/1/6 673/1/6
f 672/2/6 673/2/6 674/2/6
f 674/2/6 673/2/6 675/2/6
